<?xml version="1.0" encoding="utf-8"?>
<!-- Generator: Adobe Illustrator 15.1.0, SVG Export Plug-In . SVG Version: 6.00 Build 0)  -->
<!DOCTYPE svg PUBLIC "-//W3C//DTD SVG 1.1//EN" "http://www.w3.org/Graphics/SVG/1.1/DTD/svg11.dtd">
<svg version="1.1" id="Layer_1" xmlns="http://www.w3.org/2000/svg" xmlns:xlink="http://www.w3.org/1999/xlink" x="0px" y="0px"
	 width="339px" height="279px" viewBox="0 0 339 279" enable-background="new 0 0 339 279" xml:space="preserve">
<rect fill="#FFFFFF" stroke="#000000" stroke-miterlimit="10" width="339" height="279"/>
<g>
	<path d="M122.382,24.833V13.38h1.555l6.016,8.992V13.38h1.453v11.453h-1.555l-6.016-9v9H122.382z"/>
	<path d="M139.453,22.162l1.453,0.18c-0.229,0.849-0.654,1.508-1.273,1.977s-1.412,0.703-2.375,0.703
		c-1.213,0-2.176-0.374-2.887-1.121s-1.066-1.795-1.066-3.145c0-1.396,0.359-2.479,1.078-3.25s1.651-1.156,2.797-1.156
		c1.109,0,2.016,0.377,2.719,1.133s1.055,1.818,1.055,3.188c0,0.083-0.002,0.208-0.008,0.375h-6.188
		c0.052,0.912,0.31,1.609,0.773,2.094s1.042,0.727,1.734,0.727c0.516,0,0.956-0.135,1.32-0.406S139.239,22.755,139.453,22.162z
		 M134.835,19.888h4.633c-0.063-0.698-0.24-1.221-0.531-1.57c-0.448-0.542-1.029-0.813-1.742-0.813
		c-0.646,0-1.189,0.216-1.629,0.648S134.882,19.164,134.835,19.888z"/>
	<path d="M144.203,24.833l-2.539-8.297h1.453l1.32,4.789l0.492,1.781c0.021-0.088,0.164-0.659,0.43-1.711l1.32-4.859h1.445
		l1.242,4.813l0.414,1.586l0.477-1.602l1.422-4.797h1.368l-2.594,8.297h-1.461l-1.32-4.969l-0.32-1.414l-1.68,6.383H144.203z"/>
	<path d="M164.086,23.81c-0.521,0.443-1.022,0.755-1.504,0.938s-0.999,0.273-1.551,0.273c-0.911,0-1.612-0.223-2.102-0.668
		s-0.734-1.014-0.734-1.707c0-0.406,0.093-0.777,0.277-1.113s0.427-0.605,0.727-0.809s0.637-0.357,1.012-0.461
		c0.276-0.073,0.692-0.143,1.25-0.211c1.136-0.135,1.972-0.297,2.508-0.484c0.005-0.193,0.008-0.315,0.008-0.367
		c0-0.573-0.133-0.977-0.398-1.211c-0.359-0.318-0.894-0.477-1.602-0.477c-0.661,0-1.149,0.116-1.465,0.348s-0.548,0.642-0.699,1.23
		l-1.375-0.188c0.125-0.588,0.331-1.064,0.617-1.426s0.7-0.641,1.242-0.836s1.169-0.293,1.883-0.293c0.708,0,1.284,0.083,1.727,0.25
		s0.769,0.376,0.977,0.629s0.354,0.572,0.438,0.957c0.047,0.24,0.07,0.672,0.07,1.297v1.875c0,1.307,0.03,2.134,0.09,2.48
		s0.179,0.678,0.355,0.996h-1.469C164.222,24.542,164.128,24.201,164.086,23.81z M163.969,20.669
		c-0.511,0.208-1.276,0.385-2.297,0.531c-0.578,0.083-0.987,0.177-1.227,0.281s-0.425,0.256-0.555,0.457s-0.195,0.423-0.195,0.668
		c0,0.375,0.142,0.688,0.426,0.938s0.699,0.375,1.246,0.375c0.542,0,1.023-0.119,1.445-0.355s0.731-0.561,0.93-0.973
		c0.151-0.318,0.227-0.787,0.227-1.406V20.669z"/>
	<path d="M172.953,24.833v-1.047c-0.526,0.823-1.3,1.234-2.32,1.234c-0.661,0-1.27-0.182-1.824-0.547s-0.984-0.874-1.289-1.527
		s-0.457-1.405-0.457-2.254c0-0.828,0.138-1.58,0.414-2.254s0.69-1.191,1.242-1.551s1.169-0.539,1.852-0.539
		c0.5,0,0.945,0.105,1.336,0.316s0.708,0.486,0.953,0.824V13.38h1.398v11.453H172.953z M168.508,20.693
		c0,1.063,0.224,1.857,0.672,2.383s0.977,0.789,1.586,0.789c0.614,0,1.137-0.251,1.566-0.754s0.645-1.27,0.645-2.301
		c0-1.135-0.219-1.969-0.656-2.5s-0.977-0.797-1.617-0.797c-0.625,0-1.147,0.255-1.566,0.766S168.508,19.594,168.508,20.693z"/>
	<path d="M175.945,20.685c0-1.537,0.427-2.674,1.281-3.414c0.714-0.615,1.583-0.922,2.609-0.922c1.141,0,2.073,0.374,2.797,1.121
		s1.086,1.78,1.086,3.098c0,1.068-0.16,1.908-0.48,2.52s-0.786,1.087-1.398,1.426s-1.28,0.508-2.004,0.508
		c-1.161,0-2.101-0.373-2.816-1.117S175.945,22.086,175.945,20.685z M177.391,20.685c0,1.063,0.231,1.858,0.695,2.387
		s1.047,0.793,1.75,0.793c0.698,0,1.278-0.266,1.742-0.797s0.695-1.341,0.695-2.43c0-1.026-0.233-1.803-0.699-2.332
		s-1.046-0.793-1.738-0.793c-0.703,0-1.286,0.263-1.75,0.789S177.391,19.623,177.391,20.685z"/>
	<path d="M185.367,28.013V16.537h1.281v1.078c0.302-0.422,0.644-0.738,1.023-0.949s0.841-0.316,1.383-0.316
		c0.708,0,1.333,0.182,1.875,0.547s0.95,0.879,1.227,1.543s0.414,1.392,0.414,2.184c0,0.849-0.152,1.613-0.457,2.293
		s-0.747,1.201-1.328,1.563s-1.191,0.543-1.832,0.543c-0.469,0-0.89-0.099-1.262-0.297s-0.679-0.448-0.918-0.75v4.039H185.367z
		 M186.641,20.732c0,1.068,0.216,1.857,0.648,2.367s0.956,0.766,1.57,0.766c0.625,0,1.16-0.264,1.605-0.793s0.668-1.348,0.668-2.457
		c0-1.057-0.218-1.849-0.652-2.375s-0.954-0.789-1.559-0.789c-0.599,0-1.129,0.28-1.59,0.84S186.641,19.664,186.641,20.732z"/>
	<path d="M197.336,23.576l0.203,1.242c-0.396,0.083-0.75,0.125-1.063,0.125c-0.511,0-0.906-0.081-1.188-0.242
		s-0.479-0.374-0.594-0.637s-0.172-0.816-0.172-1.66V17.63h-1.031v-1.094h1.031v-2.055l1.398-0.844v2.898h1.414v1.094h-1.414v4.852
		c0,0.401,0.024,0.659,0.074,0.773s0.13,0.206,0.242,0.273s0.272,0.102,0.48,0.102C196.875,23.63,197.081,23.612,197.336,23.576z"/>
	<path d="M204.391,22.162l1.453,0.18c-0.229,0.849-0.653,1.508-1.273,1.977s-1.411,0.703-2.375,0.703
		c-1.214,0-2.176-0.374-2.887-1.121s-1.066-1.795-1.066-3.145c0-1.396,0.359-2.479,1.078-3.25s1.651-1.156,2.797-1.156
		c1.109,0,2.016,0.377,2.719,1.133s1.055,1.818,1.055,3.188c0,0.083-0.003,0.208-0.008,0.375h-6.188
		c0.052,0.912,0.31,1.609,0.773,2.094s1.042,0.727,1.734,0.727c0.516,0,0.956-0.135,1.32-0.406S204.177,22.755,204.391,22.162z
		 M199.773,19.888h4.633c-0.063-0.698-0.239-1.221-0.531-1.57c-0.448-0.542-1.028-0.813-1.742-0.813
		c-0.646,0-1.188,0.216-1.629,0.648S199.82,19.164,199.773,19.888z"/>
	<path d="M207.594,24.833v-8.297h1.266v1.258c0.323-0.588,0.621-0.977,0.895-1.164s0.574-0.281,0.902-0.281
		c0.474,0,0.956,0.151,1.445,0.453l-0.484,1.305c-0.344-0.203-0.688-0.305-1.031-0.305c-0.308,0-0.583,0.092-0.828,0.277
		s-0.419,0.441-0.523,0.77c-0.156,0.5-0.234,1.047-0.234,1.641v4.344H207.594z"/>
	<path d="M212.375,22.357l1.391-0.219c0.078,0.557,0.296,0.984,0.652,1.281s0.855,0.445,1.496,0.445
		c0.646,0,1.125-0.131,1.438-0.395s0.469-0.572,0.469-0.926c0-0.318-0.138-0.568-0.414-0.75c-0.192-0.125-0.672-0.284-1.438-0.477
		c-1.031-0.26-1.746-0.486-2.145-0.676s-0.7-0.453-0.906-0.789s-0.309-0.707-0.309-1.113c0-0.37,0.085-0.712,0.254-1.027
		s0.399-0.577,0.691-0.785c0.219-0.162,0.517-0.298,0.895-0.41s0.782-0.168,1.215-0.168c0.651,0,1.223,0.094,1.715,0.281
		s0.855,0.441,1.09,0.762s0.396,0.749,0.484,1.285l-1.375,0.188c-0.063-0.427-0.243-0.76-0.543-1s-0.723-0.359-1.27-0.359
		c-0.646,0-1.106,0.107-1.383,0.32s-0.414,0.463-0.414,0.75c0,0.182,0.058,0.346,0.172,0.492c0.114,0.151,0.294,0.276,0.539,0.375
		c0.141,0.052,0.555,0.172,1.242,0.359c0.995,0.266,1.688,0.483,2.082,0.652s0.702,0.416,0.926,0.738s0.336,0.724,0.336,1.203
		c0,0.469-0.137,0.91-0.41,1.324s-0.668,0.734-1.184,0.961s-1.099,0.34-1.75,0.34c-1.078,0-1.899-0.224-2.465-0.672
		S212.531,23.237,212.375,22.357z"/>
</g>
<g>
	<path d="M49.689,270.667v-7.874h1.043v7.874H49.689z"/>
	<path d="M52.445,270.667v-5.704h0.871v0.811c0.418-0.626,1.023-0.939,1.814-0.939c0.344,0,0.66,0.062,0.948,0.186
		c0.288,0.123,0.504,0.285,0.647,0.486c0.144,0.2,0.243,0.438,0.301,0.714c0.036,0.179,0.054,0.492,0.054,0.94v3.507h-0.967v-3.47
		c0-0.394-0.038-0.688-0.112-0.884c-0.076-0.195-0.209-0.351-0.4-0.467s-0.416-0.175-0.674-0.175c-0.412,0-0.768,0.131-1.066,0.393
		c-0.299,0.261-0.449,0.757-0.449,1.487v3.115H52.445z"/>
	<path d="M58.563,270.667v-5.704h0.871v0.811c0.418-0.626,1.023-0.939,1.814-0.939c0.344,0,0.66,0.062,0.948,0.186
		c0.288,0.123,0.504,0.285,0.647,0.486c0.144,0.2,0.243,0.438,0.301,0.714c0.036,0.179,0.054,0.492,0.054,0.94v3.507h-0.967v-3.47
		c0-0.394-0.038-0.688-0.112-0.884c-0.076-0.195-0.209-0.351-0.4-0.467s-0.416-0.175-0.674-0.175c-0.412,0-0.768,0.131-1.066,0.393
		c-0.299,0.261-0.449,0.757-0.449,1.487v3.115H58.563z"/>
	<path d="M64.32,267.814c0-1.056,0.294-1.838,0.881-2.347c0.49-0.423,1.089-0.634,1.794-0.634c0.784,0,1.425,0.257,1.923,0.771
		s0.746,1.224,0.746,2.13c0,0.734-0.109,1.312-0.33,1.732c-0.22,0.421-0.54,0.747-0.961,0.98c-0.421,0.232-0.88,0.349-1.378,0.349
		c-0.799,0-1.444-0.256-1.937-0.769C64.566,269.516,64.32,268.778,64.32,267.814z M65.314,267.814c0,0.73,0.159,1.278,0.478,1.642
		s0.72,0.545,1.203,0.545c0.479,0,0.879-0.183,1.198-0.548c0.318-0.365,0.478-0.922,0.478-1.67c0-0.706-0.16-1.24-0.48-1.604
		s-0.719-0.545-1.195-0.545c-0.483,0-0.885,0.181-1.203,0.542S65.314,267.084,65.314,267.814z"/>
	<path d="M72.383,270.667l-2.17-5.704h1.021l1.225,3.416c0.133,0.369,0.254,0.752,0.365,1.149c0.086-0.301,0.206-0.662,0.36-1.085
		l1.268-3.48h0.993l-2.159,5.704H72.383z"/>
	<path d="M80.021,269.963c-0.358,0.305-0.703,0.52-1.034,0.645c-0.331,0.126-0.687,0.188-1.066,0.188
		c-0.626,0-1.107-0.153-1.444-0.459c-0.337-0.307-0.505-0.697-0.505-1.174c0-0.279,0.063-0.534,0.19-0.766
		c0.127-0.23,0.294-0.416,0.5-0.556s0.438-0.245,0.695-0.316c0.189-0.051,0.477-0.099,0.859-0.146
		c0.78-0.093,1.355-0.204,1.724-0.333c0.004-0.133,0.006-0.217,0.006-0.252c0-0.395-0.092-0.672-0.273-0.833
		c-0.248-0.219-0.614-0.327-1.102-0.327c-0.455,0-0.79,0.079-1.007,0.238s-0.377,0.441-0.481,0.846l-0.945-0.129
		c0.086-0.404,0.228-0.73,0.425-0.979s0.481-0.44,0.854-0.575c0.372-0.134,0.804-0.201,1.294-0.201c0.487,0,0.883,0.058,1.187,0.172
		c0.305,0.114,0.528,0.259,0.672,0.433s0.243,0.393,0.301,0.657c0.032,0.165,0.049,0.463,0.049,0.893v1.289
		c0,0.898,0.021,1.467,0.062,1.705s0.122,0.466,0.244,0.685h-1.01C80.113,270.467,80.049,270.232,80.021,269.963z M79.939,267.805
		c-0.351,0.143-0.877,0.265-1.578,0.365c-0.398,0.057-0.679,0.121-0.844,0.193c-0.165,0.071-0.292,0.176-0.381,0.313
		c-0.09,0.138-0.135,0.291-0.135,0.46c0,0.258,0.098,0.473,0.293,0.645s0.48,0.258,0.856,0.258c0.372,0,0.704-0.082,0.993-0.245
		c0.291-0.163,0.504-0.386,0.64-0.669c0.104-0.218,0.155-0.54,0.155-0.967V267.805z"/>
	<path d="M84.527,269.803l0.14,0.854c-0.272,0.058-0.516,0.086-0.73,0.086c-0.351,0-0.623-0.056-0.816-0.166
		c-0.193-0.111-0.329-0.258-0.408-0.438s-0.118-0.562-0.118-1.142v-3.281h-0.709v-0.752h0.709v-1.412l0.961-0.58v1.992h0.973v0.752
		h-0.973v3.336c0,0.275,0.018,0.452,0.052,0.531s0.089,0.142,0.166,0.188c0.077,0.047,0.188,0.07,0.331,0.07
		C84.211,269.84,84.352,269.827,84.527,269.803z"/>
	<path d="M85.112,267.814c0-1.056,0.294-1.838,0.881-2.347c0.49-0.423,1.089-0.634,1.794-0.634c0.784,0,1.425,0.257,1.923,0.771
		s0.747,1.224,0.747,2.13c0,0.734-0.11,1.312-0.331,1.732c-0.22,0.421-0.54,0.747-0.961,0.98c-0.421,0.232-0.88,0.349-1.378,0.349
		c-0.799,0-1.444-0.256-1.937-0.769C85.358,269.516,85.112,268.778,85.112,267.814z M86.105,267.814c0,0.73,0.16,1.278,0.479,1.642
		s0.72,0.545,1.203,0.545c0.479,0,0.879-0.183,1.197-0.548c0.319-0.365,0.479-0.922,0.479-1.67c0-0.706-0.16-1.24-0.48-1.604
		s-0.719-0.545-1.195-0.545c-0.483,0-0.885,0.181-1.203,0.542S86.105,267.084,86.105,267.814z"/>
	<path d="M91.58,270.667v-5.704h0.869v0.865c0.223-0.405,0.428-0.672,0.615-0.801c0.188-0.129,0.395-0.193,0.621-0.193
		c0.325,0,0.656,0.104,0.993,0.312l-0.333,0.897c-0.236-0.141-0.473-0.21-0.709-0.21c-0.211,0-0.401,0.063-0.569,0.19
		s-0.288,0.304-0.36,0.529c-0.107,0.344-0.16,0.72-0.16,1.128v2.986H91.58z"/>
	<path d="M94.865,268.965l0.957-0.15c0.053,0.383,0.203,0.676,0.448,0.881c0.245,0.203,0.588,0.306,1.028,0.306
		c0.444,0,0.773-0.091,0.988-0.271s0.322-0.393,0.322-0.636c0-0.219-0.095-0.391-0.285-0.516c-0.132-0.086-0.461-0.195-0.988-0.328
		c-0.709-0.179-1.2-0.334-1.474-0.465c-0.274-0.131-0.481-0.312-0.623-0.542c-0.142-0.231-0.212-0.486-0.212-0.766
		c0-0.254,0.058-0.489,0.174-0.706s0.275-0.396,0.476-0.54c0.15-0.111,0.355-0.205,0.615-0.282s0.538-0.115,0.835-0.115
		c0.447,0,0.841,0.064,1.179,0.193c0.339,0.129,0.589,0.304,0.749,0.523c0.162,0.221,0.272,0.515,0.334,0.884l-0.945,0.129
		c-0.043-0.294-0.168-0.522-0.374-0.688s-0.497-0.247-0.872-0.247c-0.444,0-0.762,0.073-0.951,0.221
		c-0.189,0.146-0.285,0.318-0.285,0.516c0,0.125,0.04,0.237,0.119,0.338c0.078,0.104,0.202,0.189,0.37,0.258
		c0.097,0.036,0.382,0.118,0.854,0.247c0.684,0.183,1.16,0.332,1.431,0.448s0.482,0.286,0.637,0.508s0.231,0.498,0.231,0.827
		c0,0.322-0.095,0.626-0.282,0.91c-0.188,0.285-0.46,0.505-0.813,0.661c-0.355,0.155-0.756,0.233-1.203,0.233
		c-0.742,0-1.307-0.154-1.695-0.462S94.973,269.569,94.865,268.965z"/>
</g>
<g>
	<path d="M157.689,270.667v-7.874h1.043v7.874H157.689z"/>
	<path d="M160.445,270.667v-5.704h0.865v0.801c0.179-0.279,0.417-0.505,0.715-0.675c0.297-0.17,0.635-0.255,1.015-0.255
		c0.423,0,0.769,0.088,1.039,0.264c0.271,0.175,0.461,0.42,0.572,0.735c0.451-0.666,1.038-0.999,1.762-0.999
		c0.565,0,1.001,0.156,1.306,0.47c0.304,0.313,0.456,0.796,0.456,1.448v3.915h-0.962v-3.593c0-0.387-0.031-0.666-0.094-0.836
		s-0.176-0.307-0.341-0.41c-0.165-0.104-0.358-0.156-0.58-0.156c-0.401,0-0.734,0.134-0.999,0.4s-0.397,0.693-0.397,1.281v3.313
		h-0.967v-3.706c0-0.43-0.079-0.752-0.236-0.967s-0.415-0.322-0.773-0.322c-0.272,0-0.523,0.071-0.755,0.215
		c-0.23,0.144-0.398,0.353-0.502,0.629c-0.104,0.275-0.156,0.673-0.156,1.191v2.96H160.445z"/>
	<path d="M169.613,263.904v-1.111h0.967v1.111H169.613z M169.613,270.667v-5.704h0.967v5.704H169.613z"/>
	<path d="M174.163,269.803l0.14,0.854c-0.272,0.058-0.516,0.086-0.73,0.086c-0.351,0-0.623-0.056-0.816-0.166
		c-0.193-0.111-0.329-0.258-0.408-0.438s-0.118-0.562-0.118-1.142v-3.281h-0.709v-0.752h0.709v-1.412l0.962-0.58v1.992h0.972v0.752
		h-0.972v3.336c0,0.275,0.017,0.452,0.051,0.531s0.089,0.142,0.166,0.188c0.077,0.047,0.188,0.07,0.33,0.07
		C173.846,269.84,173.987,269.827,174.163,269.803z"/>
	<path d="M178.83,269.963c-0.358,0.305-0.703,0.52-1.034,0.645c-0.331,0.126-0.687,0.188-1.065,0.188
		c-0.627,0-1.108-0.153-1.445-0.459c-0.337-0.307-0.505-0.697-0.505-1.174c0-0.279,0.063-0.534,0.19-0.766
		c0.127-0.23,0.294-0.416,0.5-0.556s0.438-0.245,0.695-0.316c0.189-0.051,0.477-0.099,0.859-0.146
		c0.78-0.093,1.355-0.204,1.725-0.333c0.003-0.133,0.005-0.217,0.005-0.252c0-0.395-0.091-0.672-0.274-0.833
		c-0.246-0.219-0.613-0.327-1.101-0.327c-0.455,0-0.79,0.079-1.007,0.238s-0.377,0.441-0.48,0.846l-0.945-0.129
		c0.086-0.404,0.227-0.73,0.424-0.979s0.481-0.44,0.854-0.575c0.373-0.134,0.805-0.201,1.295-0.201c0.487,0,0.883,0.058,1.188,0.172
		c0.304,0.114,0.527,0.259,0.671,0.433s0.243,0.393,0.301,0.657c0.032,0.165,0.048,0.463,0.048,0.893v1.289
		c0,0.898,0.021,1.467,0.063,1.705s0.122,0.466,0.244,0.685h-1.01C178.923,270.467,178.858,270.232,178.83,269.963z M178.75,267.805
		c-0.352,0.143-0.878,0.265-1.58,0.365c-0.396,0.057-0.678,0.121-0.843,0.193c-0.165,0.071-0.292,0.176-0.382,0.313
		c-0.089,0.138-0.134,0.291-0.134,0.46c0,0.258,0.098,0.473,0.293,0.645s0.48,0.258,0.856,0.258c0.372,0,0.703-0.082,0.994-0.245
		c0.289-0.163,0.503-0.386,0.639-0.669c0.104-0.218,0.156-0.54,0.156-0.967V267.805z"/>
	<path d="M183.337,269.803l0.14,0.854c-0.272,0.058-0.516,0.086-0.73,0.086c-0.351,0-0.623-0.056-0.816-0.166
		c-0.193-0.111-0.329-0.258-0.408-0.438s-0.118-0.562-0.118-1.142v-3.281h-0.709v-0.752h0.709v-1.412l0.962-0.58v1.992h0.972v0.752
		h-0.972v3.336c0,0.275,0.017,0.452,0.051,0.531s0.089,0.142,0.166,0.188c0.077,0.047,0.188,0.07,0.33,0.07
		C183.02,269.84,183.161,269.827,183.337,269.803z"/>
	<path d="M183.922,267.814c0-1.056,0.294-1.838,0.881-2.347c0.49-0.423,1.089-0.634,1.794-0.634c0.784,0,1.425,0.257,1.923,0.771
		s0.746,1.224,0.746,2.13c0,0.734-0.109,1.312-0.33,1.732c-0.22,0.421-0.54,0.747-0.961,0.98c-0.421,0.232-0.88,0.349-1.378,0.349
		c-0.799,0-1.444-0.256-1.937-0.769C184.168,269.516,183.922,268.778,183.922,267.814z M184.916,267.814
		c0,0.73,0.159,1.278,0.478,1.642s0.72,0.545,1.203,0.545c0.479,0,0.879-0.183,1.198-0.548c0.318-0.365,0.478-0.922,0.478-1.67
		c0-0.706-0.16-1.24-0.48-1.604s-0.719-0.545-1.195-0.545c-0.483,0-0.885,0.181-1.203,0.542S184.916,267.084,184.916,267.814z"/>
	<path d="M190.389,270.667v-5.704h0.871v0.865c0.222-0.405,0.427-0.672,0.614-0.801c0.188-0.129,0.396-0.193,0.62-0.193
		c0.326,0,0.657,0.104,0.994,0.312l-0.333,0.897c-0.236-0.141-0.473-0.21-0.709-0.21c-0.211,0-0.401,0.063-0.569,0.19
		s-0.288,0.304-0.359,0.529c-0.107,0.344-0.162,0.72-0.162,1.128v2.986H190.389z"/>
	<path d="M193.676,268.965l0.957-0.15c0.053,0.383,0.203,0.676,0.448,0.881c0.245,0.203,0.588,0.306,1.028,0.306
		c0.444,0,0.773-0.091,0.988-0.271s0.322-0.393,0.322-0.636c0-0.219-0.095-0.391-0.285-0.516c-0.132-0.086-0.461-0.195-0.988-0.328
		c-0.709-0.179-1.2-0.334-1.474-0.465c-0.274-0.131-0.481-0.312-0.623-0.542c-0.142-0.231-0.212-0.486-0.212-0.766
		c0-0.254,0.058-0.489,0.174-0.706s0.275-0.396,0.476-0.54c0.15-0.111,0.355-0.205,0.615-0.282s0.538-0.115,0.835-0.115
		c0.447,0,0.841,0.064,1.179,0.193c0.339,0.129,0.589,0.304,0.749,0.523c0.162,0.221,0.272,0.515,0.334,0.884l-0.945,0.129
		c-0.043-0.294-0.168-0.522-0.374-0.688s-0.497-0.247-0.872-0.247c-0.444,0-0.762,0.073-0.951,0.221
		c-0.189,0.146-0.285,0.318-0.285,0.516c0,0.125,0.04,0.237,0.119,0.338c0.078,0.104,0.202,0.189,0.37,0.258
		c0.097,0.036,0.382,0.118,0.854,0.247c0.684,0.183,1.16,0.332,1.431,0.448s0.482,0.286,0.637,0.508s0.231,0.498,0.231,0.827
		c0,0.322-0.095,0.626-0.282,0.91c-0.188,0.285-0.46,0.505-0.813,0.661c-0.355,0.155-0.756,0.233-1.203,0.233
		c-0.742,0-1.307-0.154-1.695-0.462S193.783,269.569,193.676,268.965z"/>
</g>
<g>
	<path d="M256.502,270.667v-7.874h1.068l4.137,6.182v-6.182h0.998v7.874h-1.068l-4.136-6.188v6.188H256.502z"/>
	<path d="M268.237,268.83l0.999,0.123c-0.157,0.584-0.449,1.037-0.875,1.359c-0.427,0.322-0.971,0.483-1.633,0.483
		c-0.835,0-1.496-0.257-1.985-0.771c-0.488-0.514-0.733-1.234-0.733-2.162c0-0.96,0.248-1.704,0.742-2.234s1.135-0.795,1.922-0.795
		c0.764,0,1.387,0.26,1.869,0.779c0.484,0.519,0.726,1.249,0.726,2.191c0,0.057-0.002,0.143-0.005,0.258h-4.254
		c0.035,0.626,0.213,1.105,0.531,1.439c0.318,0.332,0.716,0.499,1.192,0.499c0.354,0,0.657-0.093,0.907-0.279
		C267.892,269.535,268.091,269.238,268.237,268.83z M265.063,267.268h3.186c-0.043-0.48-0.165-0.84-0.365-1.08
		c-0.308-0.372-0.707-0.559-1.197-0.559c-0.444,0-0.817,0.148-1.12,0.445C265.263,266.372,265.096,266.77,265.063,267.268z"/>
	<path d="M271.504,270.667l-1.746-5.704h0.999l0.907,3.293l0.339,1.225c0.015-0.062,0.112-0.453,0.296-1.177l0.907-3.341h0.993
		l0.854,3.309l0.284,1.09l0.328-1.101l0.978-3.298h0.94l-1.783,5.704h-1.005l-0.907-3.416l-0.221-0.972l-1.154,4.388H271.504z"/>
	<path d="M285.173,269.963c-0.358,0.305-0.703,0.52-1.034,0.645c-0.331,0.126-0.687,0.188-1.066,0.188
		c-0.626,0-1.107-0.153-1.444-0.459c-0.337-0.307-0.505-0.697-0.505-1.174c0-0.279,0.063-0.534,0.19-0.766
		c0.127-0.23,0.294-0.416,0.5-0.556s0.438-0.245,0.695-0.316c0.189-0.051,0.477-0.099,0.859-0.146
		c0.78-0.093,1.355-0.204,1.724-0.333c0.004-0.133,0.006-0.217,0.006-0.252c0-0.395-0.092-0.672-0.273-0.833
		c-0.248-0.219-0.614-0.327-1.102-0.327c-0.455,0-0.79,0.079-1.007,0.238s-0.377,0.441-0.481,0.846l-0.945-0.129
		c0.086-0.404,0.228-0.73,0.425-0.979s0.481-0.44,0.854-0.575c0.372-0.134,0.804-0.201,1.294-0.201c0.487,0,0.883,0.058,1.187,0.172
		c0.305,0.114,0.528,0.259,0.672,0.433s0.243,0.393,0.301,0.657c0.032,0.165,0.049,0.463,0.049,0.893v1.289
		c0,0.898,0.021,1.467,0.062,1.705s0.122,0.466,0.244,0.685h-1.01C285.266,270.467,285.201,270.232,285.173,269.963z
		 M285.092,267.805c-0.351,0.143-0.877,0.265-1.578,0.365c-0.398,0.057-0.679,0.121-0.844,0.193
		c-0.165,0.071-0.292,0.176-0.381,0.313c-0.09,0.138-0.135,0.291-0.135,0.46c0,0.258,0.098,0.473,0.293,0.645
		s0.48,0.258,0.856,0.258c0.372,0,0.704-0.082,0.993-0.245c0.291-0.163,0.504-0.386,0.64-0.669c0.104-0.218,0.155-0.54,0.155-0.967
		V267.805z"/>
	<path d="M291.27,270.667v-0.72c-0.361,0.565-0.894,0.849-1.596,0.849c-0.454,0-0.872-0.125-1.254-0.376
		c-0.381-0.251-0.677-0.601-0.886-1.05c-0.21-0.449-0.314-0.966-0.314-1.55c0-0.569,0.095-1.086,0.284-1.55
		c0.19-0.464,0.475-0.819,0.854-1.065c0.38-0.248,0.804-0.371,1.272-0.371c0.344,0,0.65,0.072,0.919,0.218
		c0.269,0.145,0.487,0.334,0.655,0.566v-2.825h0.961v7.874H291.27z M288.213,267.82c0,0.73,0.154,1.276,0.463,1.639
		c0.308,0.361,0.671,0.542,1.09,0.542c0.423,0,0.781-0.173,1.077-0.519c0.295-0.346,0.442-0.873,0.442-1.582
		c0-0.78-0.15-1.354-0.451-1.719s-0.671-0.547-1.111-0.547c-0.43,0-0.789,0.175-1.077,0.525
		C288.357,266.512,288.213,267.064,288.213,267.82z"/>
	<path d="M293.326,267.814c0-1.056,0.294-1.838,0.881-2.347c0.49-0.423,1.089-0.634,1.794-0.634c0.784,0,1.425,0.257,1.923,0.771
		s0.746,1.224,0.746,2.13c0,0.734-0.109,1.312-0.33,1.732c-0.22,0.421-0.54,0.747-0.961,0.98c-0.421,0.232-0.88,0.349-1.378,0.349
		c-0.799,0-1.444-0.256-1.937-0.769C293.572,269.516,293.326,268.778,293.326,267.814z M294.32,267.814
		c0,0.73,0.159,1.278,0.478,1.642s0.72,0.545,1.203,0.545c0.479,0,0.879-0.183,1.198-0.548c0.318-0.365,0.478-0.922,0.478-1.67
		c0-0.706-0.16-1.24-0.48-1.604s-0.719-0.545-1.195-0.545c-0.483,0-0.885,0.181-1.203,0.542S294.32,267.084,294.32,267.814z"/>
	<path d="M299.803,272.854v-7.891h0.881v0.741c0.208-0.29,0.442-0.508,0.704-0.652c0.262-0.146,0.578-0.218,0.95-0.218
		c0.487,0,0.917,0.125,1.289,0.376c0.373,0.251,0.654,0.604,0.844,1.061c0.189,0.457,0.285,0.957,0.285,1.501
		c0,0.584-0.105,1.109-0.314,1.577c-0.21,0.467-0.514,0.825-0.913,1.074s-0.819,0.373-1.26,0.373c-0.322,0-0.611-0.068-0.867-0.204
		s-0.467-0.308-0.632-0.516v2.777H299.803z M300.679,267.848c0,0.733,0.148,1.276,0.446,1.627c0.297,0.351,0.656,0.526,1.079,0.526
		c0.43,0,0.798-0.182,1.104-0.545c0.307-0.363,0.46-0.927,0.46-1.689c0-0.727-0.15-1.271-0.449-1.633s-0.656-0.542-1.071-0.542
		c-0.412,0-0.776,0.192-1.093,0.577C300.837,266.554,300.679,267.113,300.679,267.848z"/>
	<path d="M308.032,269.803l0.14,0.854c-0.272,0.058-0.516,0.086-0.73,0.086c-0.351,0-0.623-0.056-0.816-0.166
		c-0.193-0.111-0.329-0.258-0.408-0.438s-0.118-0.562-0.118-1.142v-3.281h-0.709v-0.752h0.709v-1.412l0.962-0.58v1.992h0.972v0.752
		h-0.972v3.336c0,0.275,0.017,0.452,0.051,0.531s0.089,0.142,0.166,0.188c0.077,0.047,0.188,0.07,0.33,0.07
		C307.715,269.84,307.856,269.827,308.032,269.803z"/>
	<path d="M312.882,268.83l0.999,0.123c-0.157,0.584-0.449,1.037-0.875,1.359c-0.427,0.322-0.971,0.483-1.633,0.483
		c-0.835,0-1.496-0.257-1.985-0.771c-0.488-0.514-0.733-1.234-0.733-2.162c0-0.96,0.248-1.704,0.742-2.234s1.135-0.795,1.922-0.795
		c0.764,0,1.387,0.26,1.869,0.779c0.484,0.519,0.726,1.249,0.726,2.191c0,0.057-0.002,0.143-0.005,0.258h-4.254
		c0.035,0.626,0.213,1.105,0.531,1.439c0.318,0.332,0.716,0.499,1.192,0.499c0.354,0,0.657-0.093,0.907-0.279
		C312.536,269.535,312.735,269.238,312.882,268.83z M309.707,267.268h3.186c-0.043-0.48-0.165-0.84-0.365-1.08
		c-0.308-0.372-0.707-0.559-1.197-0.559c-0.444,0-0.817,0.148-1.12,0.445C309.907,266.372,309.74,266.77,309.707,267.268z"/>
	<path d="M315.084,270.667v-5.704h0.871v0.865c0.222-0.405,0.427-0.672,0.614-0.801c0.188-0.129,0.396-0.193,0.62-0.193
		c0.326,0,0.657,0.104,0.994,0.312l-0.333,0.897c-0.236-0.141-0.473-0.21-0.709-0.21c-0.211,0-0.401,0.063-0.569,0.19
		s-0.288,0.304-0.359,0.529c-0.107,0.344-0.162,0.72-0.162,1.128v2.986H315.084z"/>
	<path d="M318.371,268.965l0.957-0.15c0.053,0.383,0.203,0.676,0.448,0.881c0.245,0.203,0.588,0.306,1.028,0.306
		c0.444,0,0.773-0.091,0.988-0.271s0.322-0.393,0.322-0.636c0-0.219-0.095-0.391-0.285-0.516c-0.132-0.086-0.461-0.195-0.988-0.328
		c-0.709-0.179-1.2-0.334-1.474-0.465c-0.274-0.131-0.481-0.312-0.623-0.542c-0.142-0.231-0.212-0.486-0.212-0.766
		c0-0.254,0.058-0.489,0.174-0.706s0.275-0.396,0.476-0.54c0.15-0.111,0.355-0.205,0.615-0.282s0.538-0.115,0.835-0.115
		c0.447,0,0.841,0.064,1.179,0.193c0.339,0.129,0.589,0.304,0.749,0.523c0.162,0.221,0.272,0.515,0.334,0.884l-0.945,0.129
		c-0.043-0.294-0.168-0.522-0.374-0.688s-0.497-0.247-0.872-0.247c-0.444,0-0.762,0.073-0.951,0.221
		c-0.189,0.146-0.285,0.318-0.285,0.516c0,0.125,0.04,0.237,0.119,0.338c0.078,0.104,0.202,0.189,0.37,0.258
		c0.097,0.036,0.382,0.118,0.854,0.247c0.684,0.183,1.16,0.332,1.431,0.448s0.482,0.286,0.637,0.508s0.231,0.498,0.231,0.827
		c0,0.322-0.095,0.626-0.282,0.91c-0.188,0.285-0.46,0.505-0.813,0.661c-0.355,0.155-0.756,0.233-1.203,0.233
		c-0.742,0-1.307-0.154-1.695-0.462S318.479,269.569,318.371,268.965z"/>
</g>
<path fill="none" stroke="#000000" stroke-width="2" stroke-miterlimit="10" stroke-dasharray="14,11" d="M229.453,190.046
	C194.906,189.592,165.5,180.5,153.5,173.5s-28-32-32.336-40.5S101,104,88,99.5s-51.5,91.031-51.5,91.031"/>
<path fill="none" stroke="#FF6633" stroke-width="2" stroke-miterlimit="10" d="M264,190.5c-13,0-34,0.5-60.5-2.5s-35.5-8.5-49-17.5
	s-31-41-31-41S98,71.5,84,71.5c-16.5,0-47.5,68-47.5,68"/>
<path fill="none" stroke="#000000" stroke-width="2" stroke-miterlimit="10" stroke-dasharray="2,4" d="M36,139.5
	c0,0,19.5,5.5,37.5,16s31.5,19,42,23S146,191,223.5,191"/>
<line fill="none" stroke="#000000" stroke-width="2" stroke-miterlimit="10" stroke-dasharray="2,4" x1="6" y1="266" x2="44.5" y2="266"/>
<line fill="none" stroke="#000000" stroke-width="2" stroke-miterlimit="10" stroke-dasharray="14,11" x1="113" y1="266" x2="150.25" y2="266"/>
<line fill="none" stroke="#FF6633" stroke-width="2" stroke-miterlimit="10" x1="212.5" y1="266" x2="252" y2="266"/>
<line fill="none" stroke="#000000" stroke-miterlimit="10" x1="35.758" y1="191.5" x2="321.167" y2="191.5"/>
<line fill="none" stroke="#000000" stroke-miterlimit="10" x1="35.758" y1="111.5" x2="31.833" y2="111.5"/>
<line fill="none" stroke="#000000" stroke-miterlimit="10" x1="35.758" y1="138.167" x2="31.833" y2="138.167"/>
<line fill="none" stroke="#000000" stroke-miterlimit="10" x1="35.758" y1="164.501" x2="31.833" y2="164.501"/>
<line fill="none" stroke="#000000" stroke-miterlimit="10" x1="35.758" y1="191.5" x2="31.833" y2="191.5"/>
<line fill="none" stroke="#000000" stroke-miterlimit="10" x1="35.758" y1="191.5" x2="35.758" y2="194.834"/>
<line fill="none" stroke="#000000" stroke-miterlimit="10" x1="131.37" y1="191.5" x2="131.37" y2="194.834"/>
<line fill="none" stroke="#000000" stroke-miterlimit="10" x1="226.982" y1="191.515" x2="226.982" y2="194.834"/>
<line fill="none" stroke="#000000" stroke-miterlimit="10" x1="35.758" y1="85.5" x2="31.833" y2="85.5"/>
<g>
	<path d="M21.041,62.986V64h-5.678c-0.008-0.254,0.033-0.498,0.123-0.732c0.145-0.387,0.376-0.768,0.694-1.143
		s0.778-0.809,1.38-1.301c0.934-0.766,1.564-1.372,1.893-1.819s0.492-0.87,0.492-1.269c0-0.418-0.149-0.771-0.448-1.058
		s-0.688-0.431-1.169-0.431c-0.508,0-0.914,0.152-1.219,0.457s-0.459,0.727-0.463,1.266l-1.084-0.111
		c0.074-0.809,0.354-1.425,0.838-1.849s1.135-0.636,1.951-0.636c0.824,0,1.477,0.229,1.957,0.686s0.721,1.023,0.721,1.699
		c0,0.344-0.07,0.682-0.211,1.014s-0.374,0.682-0.7,1.049s-0.868,0.871-1.626,1.512c-0.633,0.531-1.039,0.892-1.219,1.081
		s-0.328,0.38-0.445,0.571H21.041z"/>
	<path d="M22.172,61.75l1.107-0.094c0.082,0.539,0.272,0.944,0.571,1.216s0.659,0.407,1.081,0.407c0.508,0,0.938-0.191,1.289-0.574
		s0.527-0.891,0.527-1.523c0-0.602-0.169-1.076-0.507-1.424s-0.78-0.521-1.327-0.521c-0.34,0-0.646,0.077-0.92,0.231
		s-0.488,0.354-0.645,0.601l-0.99-0.129l0.832-4.412h4.271v1.008h-3.428l-0.463,2.309c0.516-0.359,1.057-0.539,1.623-0.539
		c0.75,0,1.383,0.26,1.898,0.779s0.773,1.188,0.773,2.004c0,0.777-0.227,1.449-0.68,2.016c-0.551,0.695-1.303,1.043-2.256,1.043
		c-0.781,0-1.419-0.219-1.913-0.656S22.242,62.473,22.172,61.75z"/>
</g>
<g>
	<path d="M21.041,88.361v1.014h-5.678c-0.008-0.254,0.033-0.498,0.123-0.732c0.145-0.387,0.376-0.768,0.694-1.143
		s0.778-0.809,1.38-1.301c0.934-0.766,1.564-1.372,1.893-1.819s0.492-0.87,0.492-1.269c0-0.418-0.149-0.771-0.448-1.058
		s-0.688-0.431-1.169-0.431c-0.508,0-0.914,0.152-1.219,0.457s-0.459,0.727-0.463,1.266l-1.084-0.111
		c0.074-0.809,0.354-1.425,0.838-1.849s1.135-0.636,1.951-0.636c0.824,0,1.477,0.229,1.957,0.686s0.721,1.023,0.721,1.699
		c0,0.344-0.07,0.682-0.211,1.014s-0.374,0.682-0.7,1.049s-0.868,0.871-1.626,1.512c-0.633,0.531-1.039,0.892-1.219,1.081
		s-0.328,0.38-0.445,0.571H21.041z"/>
	<path d="M22.172,85.139c0-1.016,0.104-1.833,0.313-2.452s0.52-1.097,0.932-1.433s0.931-0.504,1.556-0.504
		c0.461,0,0.865,0.093,1.213,0.278s0.635,0.453,0.861,0.803s0.404,0.775,0.533,1.277s0.193,1.179,0.193,2.03
		c0,1.008-0.104,1.821-0.311,2.44s-0.517,1.098-0.929,1.436s-0.933,0.507-1.562,0.507c-0.828,0-1.479-0.297-1.951-0.891
		C22.455,87.916,22.172,86.752,22.172,85.139z M23.256,85.139c0,1.41,0.165,2.349,0.495,2.815s0.737,0.7,1.222,0.7
		s0.892-0.234,1.222-0.703s0.495-1.406,0.495-2.813c0-1.414-0.165-2.354-0.495-2.818s-0.741-0.697-1.233-0.697
		c-0.484,0-0.871,0.205-1.16,0.615C23.438,82.762,23.256,83.729,23.256,85.139z"/>
</g>
<g>
	<path d="M19.471,115.75h-1.055v-6.721c-0.254,0.242-0.587,0.484-0.999,0.727s-0.782,0.424-1.11,0.545v-1.02
		c0.59-0.277,1.105-0.613,1.547-1.008s0.754-0.777,0.938-1.148h0.68V115.75z"/>
	<path d="M22.172,113.5l1.107-0.094c0.082,0.539,0.272,0.944,0.571,1.216s0.659,0.407,1.081,0.407c0.508,0,0.938-0.191,1.289-0.574
		s0.527-0.891,0.527-1.523c0-0.602-0.169-1.076-0.507-1.424s-0.78-0.521-1.327-0.521c-0.34,0-0.646,0.077-0.92,0.231
		s-0.488,0.354-0.645,0.601l-0.99-0.129l0.832-4.412h4.271v1.008h-3.428l-0.463,2.309c0.516-0.359,1.057-0.539,1.623-0.539
		c0.75,0,1.383,0.26,1.898,0.779s0.773,1.188,0.773,2.004c0,0.777-0.227,1.449-0.68,2.016c-0.551,0.695-1.303,1.043-2.256,1.043
		c-0.781,0-1.419-0.219-1.913-0.656S22.242,114.223,22.172,113.5z"/>
</g>
<g>
	<path d="M19.471,143.125h-1.055v-6.721c-0.254,0.242-0.587,0.484-0.999,0.727s-0.782,0.424-1.11,0.545v-1.02
		c0.59-0.277,1.105-0.613,1.547-1.008s0.754-0.777,0.938-1.148h0.68V143.125z"/>
	<path d="M22.172,138.889c0-1.016,0.104-1.833,0.313-2.452s0.52-1.097,0.932-1.433s0.931-0.504,1.556-0.504
		c0.461,0,0.865,0.093,1.213,0.278s0.635,0.453,0.861,0.803s0.404,0.775,0.533,1.277s0.193,1.179,0.193,2.03
		c0,1.008-0.104,1.821-0.311,2.44s-0.517,1.098-0.929,1.436s-0.933,0.507-1.562,0.507c-0.828,0-1.479-0.297-1.951-0.891
		C22.455,141.666,22.172,140.502,22.172,138.889z M23.256,138.889c0,1.41,0.165,2.349,0.495,2.815s0.737,0.7,1.222,0.7
		s0.892-0.234,1.222-0.703s0.495-1.406,0.495-2.813c0-1.414-0.165-2.354-0.495-2.818s-0.741-0.697-1.233-0.697
		c-0.484,0-0.871,0.205-1.16,0.615C23.438,136.512,23.256,137.479,23.256,138.889z"/>
</g>
<g>
	<path d="M22.172,166.25l1.107-0.094c0.082,0.539,0.272,0.944,0.571,1.216s0.659,0.407,1.081,0.407c0.508,0,0.938-0.191,1.289-0.574
		s0.527-0.891,0.527-1.523c0-0.602-0.169-1.076-0.507-1.424s-0.78-0.521-1.327-0.521c-0.34,0-0.646,0.077-0.92,0.231
		s-0.488,0.354-0.645,0.601l-0.99-0.129l0.832-4.412h4.271v1.008h-3.428l-0.463,2.309c0.516-0.359,1.057-0.539,1.623-0.539
		c0.75,0,1.383,0.26,1.898,0.779s0.773,1.188,0.773,2.004c0,0.777-0.227,1.449-0.68,2.016c-0.551,0.695-1.303,1.043-2.256,1.043
		c-0.781,0-1.419-0.219-1.913-0.656S22.242,166.973,22.172,166.25z"/>
</g>
<g>
	<path d="M22.381,192.422v-1.061h3.24v1.061H22.381z"/>
</g>
<g>
	<path d="M33.498,209.264c0-1.016,0.104-1.833,0.313-2.452s0.52-1.097,0.932-1.433s0.931-0.504,1.556-0.504
		c0.461,0,0.865,0.093,1.213,0.278s0.635,0.453,0.861,0.803s0.404,0.775,0.533,1.277s0.193,1.179,0.193,2.03
		c0,1.008-0.104,1.821-0.311,2.44s-0.517,1.098-0.929,1.436s-0.933,0.507-1.562,0.507c-0.828,0-1.479-0.297-1.951-0.891
		C33.781,212.041,33.498,210.877,33.498,209.264z M34.582,209.264c0,1.41,0.165,2.349,0.495,2.815s0.737,0.7,1.222,0.7
		s0.892-0.234,1.222-0.703s0.495-1.406,0.495-2.813c0-1.414-0.165-2.354-0.495-2.818s-0.741-0.697-1.233-0.697
		c-0.484,0-0.871,0.205-1.16,0.615C34.764,206.887,34.582,207.854,34.582,209.264z"/>
</g>
<g>
	<path d="M128.498,211.75l1.107-0.094c0.082,0.539,0.272,0.944,0.571,1.216s0.659,0.407,1.081,0.407
		c0.508,0,0.938-0.191,1.289-0.574s0.527-0.891,0.527-1.523c0-0.602-0.169-1.076-0.507-1.424s-0.78-0.521-1.327-0.521
		c-0.34,0-0.646,0.077-0.92,0.231s-0.488,0.354-0.645,0.601l-0.99-0.129l0.832-4.412h4.271v1.008h-3.428l-0.463,2.309
		c0.516-0.359,1.057-0.539,1.623-0.539c0.75,0,1.383,0.26,1.898,0.779s0.773,1.188,0.773,2.004c0,0.777-0.227,1.449-0.68,2.016
		c-0.551,0.695-1.303,1.043-2.256,1.043c-0.781,0-1.419-0.219-1.913-0.656S128.568,212.473,128.498,211.75z"/>
</g>
<g>
	<path d="M222.971,214.5h-1.055v-6.721c-0.254,0.242-0.587,0.484-0.999,0.727s-0.782,0.424-1.11,0.545v-1.02
		c0.59-0.277,1.105-0.613,1.547-1.008s0.754-0.777,0.938-1.148h0.68V214.5z"/>
	<path d="M225.672,210.264c0-1.016,0.104-1.833,0.313-2.452s0.52-1.097,0.932-1.433s0.931-0.504,1.556-0.504
		c0.461,0,0.865,0.093,1.213,0.278s0.635,0.453,0.861,0.803s0.404,0.775,0.533,1.277s0.193,1.179,0.193,2.03
		c0,1.008-0.104,1.821-0.311,2.44s-0.517,1.098-0.929,1.436s-0.933,0.507-1.562,0.507c-0.828,0-1.479-0.297-1.951-0.891
		C225.955,213.041,225.672,211.877,225.672,210.264z M226.756,210.264c0,1.41,0.165,2.349,0.495,2.815s0.737,0.7,1.222,0.7
		s0.892-0.234,1.222-0.703s0.495-1.406,0.495-2.813c0-1.414-0.165-2.354-0.495-2.818s-0.741-0.697-1.233-0.697
		c-0.484,0-0.871,0.205-1.16,0.615C226.938,207.887,226.756,208.854,226.756,210.264z"/>
</g>
<g>
	<path d="M317.971,213.5h-1.055v-6.721c-0.254,0.242-0.587,0.484-0.999,0.727s-0.782,0.424-1.11,0.545v-1.02
		c0.59-0.277,1.105-0.613,1.547-1.008s0.754-0.777,0.938-1.148h0.68V213.5z"/>
	<path d="M320.672,211.25l1.107-0.094c0.082,0.539,0.272,0.944,0.571,1.216s0.659,0.407,1.081,0.407
		c0.508,0,0.938-0.191,1.289-0.574s0.527-0.891,0.527-1.523c0-0.602-0.169-1.076-0.507-1.424s-0.78-0.521-1.327-0.521
		c-0.34,0-0.646,0.077-0.92,0.231s-0.488,0.354-0.645,0.601l-0.99-0.129l0.832-4.412h4.271v1.008h-3.428l-0.463,2.309
		c0.516-0.359,1.057-0.539,1.623-0.539c0.75,0,1.383,0.26,1.898,0.779s0.773,1.188,0.773,2.004c0,0.777-0.227,1.449-0.68,2.016
		c-0.551,0.695-1.303,1.043-2.256,1.043c-0.781,0-1.419-0.219-1.913-0.656S320.742,211.973,320.672,211.25z"/>
</g>
<g>
	<path d="M168.846,235.5v-3.639l-3.311-4.951h1.383l1.693,2.59c0.313,0.484,0.604,0.969,0.873,1.453
		c0.258-0.449,0.57-0.955,0.938-1.518l1.664-2.525h1.324l-3.428,4.951v3.639H168.846z"/>
	<path d="M177.453,233.496l1.09,0.135c-0.172,0.637-0.49,1.131-0.955,1.482s-1.059,0.527-1.781,0.527
		c-0.91,0-1.632-0.28-2.165-0.841s-0.8-1.347-0.8-2.358c0-1.047,0.27-1.859,0.809-2.438s1.238-0.867,2.098-0.867
		c0.832,0,1.512,0.283,2.039,0.85s0.791,1.363,0.791,2.391c0,0.063-0.002,0.156-0.006,0.281h-4.641
		c0.039,0.684,0.232,1.207,0.58,1.57s0.781,0.545,1.301,0.545c0.387,0,0.717-0.102,0.99-0.305S177.293,233.941,177.453,233.496z
		 M173.99,231.791h3.475c-0.047-0.523-0.18-0.916-0.398-1.178c-0.336-0.406-0.771-0.609-1.307-0.609
		c-0.484,0-0.892,0.162-1.222,0.486S174.025,231.248,173.99,231.791z"/>
	<path d="M183.928,234.732c-0.391,0.332-0.767,0.566-1.128,0.703s-0.749,0.205-1.163,0.205c-0.684,0-1.209-0.167-1.576-0.501
		s-0.551-0.761-0.551-1.28c0-0.305,0.069-0.583,0.208-0.835s0.32-0.454,0.545-0.606s0.478-0.268,0.759-0.346
		c0.207-0.055,0.52-0.107,0.938-0.158c0.852-0.102,1.479-0.223,1.881-0.363c0.004-0.145,0.006-0.236,0.006-0.275
		c0-0.43-0.1-0.732-0.299-0.908c-0.27-0.238-0.67-0.357-1.201-0.357c-0.496,0-0.862,0.087-1.099,0.261s-0.411,0.481-0.524,0.923
		l-1.031-0.141c0.094-0.441,0.248-0.798,0.463-1.069s0.525-0.48,0.932-0.627s0.877-0.22,1.412-0.22c0.531,0,0.963,0.063,1.295,0.188
		s0.576,0.282,0.732,0.472s0.266,0.429,0.328,0.718c0.035,0.18,0.053,0.504,0.053,0.973v1.406c0,0.98,0.022,1.601,0.067,1.86
		s0.134,0.509,0.267,0.747h-1.102C184.029,235.281,183.959,235.025,183.928,234.732z M183.84,232.377
		c-0.383,0.156-0.957,0.289-1.723,0.398c-0.434,0.063-0.74,0.133-0.92,0.211s-0.318,0.192-0.416,0.343s-0.146,0.317-0.146,0.501
		c0,0.281,0.106,0.516,0.319,0.703s0.524,0.281,0.935,0.281c0.406,0,0.768-0.089,1.084-0.267s0.549-0.421,0.697-0.729
		c0.113-0.238,0.17-0.59,0.17-1.055V232.377z"/>
	<path d="M186.529,235.5v-6.223h0.949v0.943c0.242-0.441,0.466-0.732,0.671-0.873s0.431-0.211,0.677-0.211
		c0.355,0,0.717,0.113,1.084,0.34l-0.363,0.979c-0.258-0.152-0.516-0.229-0.773-0.229c-0.23,0-0.438,0.069-0.621,0.208
		s-0.314,0.331-0.393,0.577c-0.117,0.375-0.176,0.785-0.176,1.23v3.258H186.529z"/>
</g>
<polyline fill="none" stroke="#000000" stroke-miterlimit="10" points="31.833,59.334 35.758,59.334 35.758,191.528 
	321.167,191.528 321.167,194.834 "/>
</svg>
